<mxfile host="app.diagrams.net" modified="2024-06-09T12:39:49.157Z" agent="Mozilla/5.0 (Macintosh; Intel Mac OS X 10_15_7) AppleWebKit/605.1.15 (KHTML, like Gecko) Version/17.5 Safari/605.1.15" version="24.5.2" etag="S8mhv6w3sWPeAgmJJmRH" type="github">
  <diagram name="페이지-1" id="m7776P3gCJ1IixiFtzBg">
    <mxGraphModel>
      <root>
        <mxCell id="0" />
        <mxCell id="1" parent="0" />
      </root>
    </mxGraphModel>
  </diagram>
</mxfile>
